<svg width="1440" height="900" viewBox="0 0 1440 900" fill="none" xmlns="http://www.w3.org/2000/svg">
<g clip-path="url(#clip0)">
<rect width="1440" height="900" fill="white"/>
<path d="M222.94 96.1249C243.177 128.228 268.411 151.003 271.172 176.164C273.933 201.325 254.26 228.66 230.882 244.185C207.254 259.882 179.96 263.557 148.692 274.568C117.595 285.829 82.7345 304.465 57.0879 296.883C31.2303 289.263 14.5869 255.425 15.4107 225.037C16.4455 194.689 34.6976 167.963 49.9038 145.909C65.11 123.854 77.4422 106.722 97.1708 80.2689C117.149 53.6441 144.524 17.6991 165.85 20.3365C187.176 22.9739 202.665 64.2328 222.94 96.1249Z" fill="#02394A"/>
<path d="M1108.42 47.9861C1080.57 57.2701 1058.83 87.8651 1049.34 123.313C1040.05 158.761 1043.01 198.851 1059.25 235.565C1075.5 272.279 1105.04 305.617 1139.01 311.103C1172.77 316.589 1210.96 294.645 1249.58 278.398C1288.4 262.151 1327.22 252.023 1335.45 228.391C1343.47 204.97 1320.68 168.256 1314.14 127.955C1307.81 87.6541 1318.15 43.7661 1302.54 32.1611C1286.92 20.7671 1245.36 41.6561 1207.8 46.0871C1170.03 50.5181 1136.27 38.7021 1108.42 47.9861Z" fill="#4549C4"/>
<path d="M830.317 627.147C864.74 636.024 907.824 655.076 921.463 686.035C935.319 716.995 919.731 760.295 891.803 784.543C863.874 808.791 823.605 814.42 785.285 831.09C746.748 847.761 710.159 875.256 673.787 874.174C637.415 873.091 601.476 843.214 599.095 808.574C596.713 773.934 627.673 734.748 646.075 704.221C664.478 673.911 670.54 652.261 684.612 639.704C698.685 627.147 721.201 623.9 745.449 621.735C769.697 619.57 795.677 618.271 830.317 627.147Z" fill="#043565"/>
</g>
<defs>
<clipPath id="clip0">
<rect width="1440" height="900" fill="white"/>
</clipPath>
</defs>
</svg>
