<svg width="46" height="45" viewBox="0 0 46 45" fill="none" xmlns="http://www.w3.org/2000/svg">
<path d="M23 0C10.2974 0 0 10.0736 0 22.5C0 34.9264 10.2974 45 23 45C35.7026 45 46 34.9264 46 22.5C46 10.0736 35.7026 0 23 0ZM31.7746 11.4583L28.5934 11.4597C26.0988 11.4597 25.6165 12.6193 25.6165 14.3208V18.0727H31.5652L31.5624 23.9492H25.6169V39.0296H19.4122V23.9492H14.2254V18.0727H19.4122V13.7389C19.4122 8.70951 22.5534 5.97038 27.1393 5.97038L31.7751 5.97729V11.4583H31.7746Z" fill="#02394A"/>
</svg>
