<svg width="46" height="45" viewBox="0 0 46 45" fill="none" xmlns="http://www.w3.org/2000/svg">
<path d="M23 45C35.696 45 46 34.92 46 22.5C46 10.08 35.696 0 23 0C10.304 0 0 10.08 0 22.5C0 34.92 10.304 45 23 45ZM31.2091 20.8931H34.5019V17.6737H37.7948V20.895H41.0588V24.1163H37.7948V27.3375H34.5019V24.1163H31.2091V20.8931ZM16.4431 11.2481C19.3449 11.2481 22.0167 12.2475 24.1423 14.1788L21.0258 17.1375C19.8011 15.9656 18.124 15.405 16.4431 15.405C12.4641 15.405 9.28242 18.6262 9.28242 22.4906C9.28242 26.355 12.4545 29.5763 16.4431 29.5763C19.4657 29.5763 22.4614 27.8438 22.9444 24.7406H16.4431V20.8762H27.2857C27.4064 21.4931 27.462 22.11 27.462 22.7531C27.462 29.1769 23.0556 33.7481 16.4431 33.7481V33.75C10.0625 33.75 4.94117 28.7137 4.94117 22.4981C4.94117 16.2825 10.0625 11.2481 16.4431 11.2481Z" fill="#02394A"/>
</svg>
