<svg width="46" height="45" viewBox="0 0 46 45" fill="none" xmlns="http://www.w3.org/2000/svg">
<path d="M23 0C10.2994 0 0 10.0755 0 22.5C0 34.9245 10.2994 45 23 45C35.7006 45 46 34.9245 46 22.5C46 10.0755 35.7006 0 23 0ZM16.3165 34.0137H10.7149V17.5277H16.3165V34.0137ZM13.5159 15.2765H13.4794C11.5997 15.2765 10.384 14.0107 10.384 12.4286C10.384 10.8109 11.6369 9.58008 13.5531 9.58008C15.4693 9.58008 16.6485 10.8109 16.685 12.4286C16.685 14.0107 15.4693 15.2765 13.5159 15.2765ZM36.5145 34.0137H30.9136V25.1941C30.9136 22.9776 30.1026 21.4659 28.0758 21.4659C26.5285 21.4659 25.6069 22.4856 25.2019 23.4699C25.0538 23.8221 25.0176 24.3145 25.0176 24.8071V34.0137H19.4164C19.4164 34.0137 19.4898 19.0743 19.4164 17.5277H25.0176V19.8619C25.762 18.7386 27.0939 17.1407 30.0657 17.1407C33.7511 17.1407 36.5145 19.497 36.5145 24.5606V34.0137Z" fill="#02394A"/>
</svg>
