<svg id="Calque_1" data-name="Calque 1" xmlns="http://www.w3.org/2000/svg" xmlns:xlink="http://www.w3.org/1999/xlink" viewBox="0 0 376 738"><defs><style>.cls-1{fill:none;}.cls-2{clip-path:url(#clip-path);}.cls-3{fill:#fff;}.cls-4{fill:#4549c4;}.cls-5{fill:#043565;}.cls-6{fill:#02394a;}</style><clipPath id="clip-path"><rect class="cls-1" x="0.5" y="1" width="375" height="737"/></clipPath></defs><title>mobile</title><g class="cls-2"><rect class="cls-3" x="0.5" y="247" width="375" height="491"/><path class="cls-4" d="M-73.82,517.43c-19.47,14-29.05,43.2-27.91,73.33,1.3,30.09,13.25,60.9,34.75,85.89S-14.42,720.8,13.38,717c27.63-3.75,52.11-30.12,78.3-52.11,26.35-22,54.17-39.27,54.9-59.81.61-20.33-26-43.76-40.79-73.88C91.15,501,88.64,464.06,73.68,458.66c-14.92-5.23-42.29,21.12-70.49,33.56C-25.19,504.72-54.35,503.49-73.82,517.43Z"/><path class="cls-5" d="M321.18,385.43c-19.47,13.95-29.05,43.2-27.91,73.33,1.3,30.09,13.25,60.9,34.75,85.89S380.58,588.8,408.38,585c27.63-3.75,52.11-30.12,78.3-52.11,26.35-22,54.17-39.27,54.9-59.81.61-20.33-26-43.76-40.79-73.88-14.64-30.18-17.15-67.15-32.11-72.55-14.92-5.23-42.29,21.11-70.49,33.56C369.81,372.72,340.65,371.49,321.18,385.43Z"/><path class="cls-6" d="M.5,558.43,375.5,446V738H.5Z"/><path class="cls-3" d="M70.35,562.69,69.9,580.4l-2.41.74-8.31-11.49-.46,14.17-2.46.75L46,570.14l2.36-.72,8.33,11.74.53-14.45,2.11-.64,8.45,11.77.41-14.48Zm14-.15a5.77,5.77,0,0,1,4.24.06,5,5,0,0,1,2.48,3.28l2.25,7.35-2.09.64-.49-1.61a3.73,3.73,0,0,1-1.19,1.79,6.15,6.15,0,0,1-2.27,1.17,5.32,5.32,0,0,1-3.59,0,3.55,3.55,0,0,1-1.62-5.15A6,6,0,0,1,85.53,568L89,566.9l-.13-.44a2.94,2.94,0,0,0-1.49-1.92,3.67,3.67,0,0,0-2.67,0,6.53,6.53,0,0,0-2,1A5.6,5.6,0,0,0,81.27,567l-1.42-1.37a6.78,6.78,0,0,1,1.89-1.84A9.67,9.67,0,0,1,84.39,562.54Zm2.78,10.87a4.32,4.32,0,0,0,2-1.21,3.49,3.49,0,0,0,.84-2l-.52-1.7-3.4,1c-1.86.57-2.61,1.49-2.22,2.74A1.78,1.78,0,0,0,85,573.49,3.38,3.38,0,0,0,87.17,573.41Zm19.89-17.8a5.24,5.24,0,0,1,4.09.23,5.44,5.44,0,0,1,2.57,3.51l2.15,7-2.21.67-2.06-6.75a3.91,3.91,0,0,0-1.66-2.4,3.37,3.37,0,0,0-2.71-.15,3.91,3.91,0,0,0-2.5,1.92,4.21,4.21,0,0,0-.12,3.3l1.91,6.26-2.2.68-3.72-12.17,2.11-.64.57,1.83a4.49,4.49,0,0,1,1.34-2A6.86,6.86,0,0,1,107.06,555.61Zm22.51-6.88a5.19,5.19,0,0,1,4.09.23,5.45,5.45,0,0,1,2.57,3.5l2.14,7-2.2.67-2.06-6.75a3.88,3.88,0,0,0-1.67-2.4,3.27,3.27,0,0,0-2.7-.15,3.88,3.88,0,0,0-2.5,1.92,4.18,4.18,0,0,0-.12,3.29l1.91,6.27-2.2.67-3.72-12.16,2.11-.65.56,1.84a4.43,4.43,0,0,1,1.35-2A6.63,6.63,0,0,1,129.57,548.73ZM150,542.48a5.72,5.72,0,0,1,4.24.06,5,5,0,0,1,2.48,3.28l2.25,7.35-2.09.63-.49-1.6a3.73,3.73,0,0,1-1.19,1.79,6.15,6.15,0,0,1-2.27,1.17,5.32,5.32,0,0,1-3.59,0,3.33,3.33,0,0,1-2-2.22,3.28,3.28,0,0,1,.39-2.93,5.93,5.93,0,0,1,3.41-2.12l3.49-1.07-.13-.44a3,3,0,0,0-1.49-1.93,3.68,3.68,0,0,0-2.67,0,6.73,6.73,0,0,0-2,1,5.48,5.48,0,0,0-1.45,1.48l-1.43-1.37a6.82,6.82,0,0,1,1.9-1.84A9.67,9.67,0,0,1,150,542.48Zm2.77,10.87a4.38,4.38,0,0,0,2-1.21,3.52,3.52,0,0,0,.84-2l-.52-1.7-3.4,1c-1.87.57-2.61,1.49-2.23,2.74a1.81,1.81,0,0,0,1.16,1.23A3.35,3.35,0,0,0,152.78,553.35Zm30.05-2.46a5.5,5.5,0,0,1-1.55.27A3.2,3.2,0,0,1,180,551l.19-1.92a2.85,2.85,0,0,0,2,0,1.73,1.73,0,0,0,1.17-1,2.43,2.43,0,0,0,0-1.73l-3.91-12.76,2.21-.68,3.88,12.72a4.34,4.34,0,0,1-.1,3.27A3.91,3.91,0,0,1,182.83,550.89ZM179.77,531a1.58,1.58,0,0,1-1.21-.09,1.5,1.5,0,0,1-.61-2,1.53,1.53,0,0,1,.94-.76,1.5,1.5,0,0,1,1.18.09,1.33,1.33,0,0,1,.74.85,1.52,1.52,0,0,1-1,1.93Zm21.88,9.32a6.92,6.92,0,0,1-3.51.19,6.17,6.17,0,0,1-2.94-1.5,6.78,6.78,0,0,1-1.79-3,6.65,6.65,0,0,1-.17-3.44,6,6,0,0,1,1.6-2.9,6.88,6.88,0,0,1,3-1.8,6.7,6.7,0,0,1,3.48-.18,5.82,5.82,0,0,1,2.93,1.51,6.91,6.91,0,0,1,2,6.41,6,6,0,0,1-1.57,2.89A6.83,6.83,0,0,1,201.65,540.27Zm-.59-1.93a4.34,4.34,0,0,0,1.93-1.16,4.07,4.07,0,0,0,1-2,4.89,4.89,0,0,0-.16-2.41,4.74,4.74,0,0,0-1.21-2.06,3.83,3.83,0,0,0-1.93-1.07,4.34,4.34,0,0,0-2.25.11,4.4,4.4,0,0,0-1.95,1.18,4,4,0,0,0-1,2,4.69,4.69,0,0,0,.15,2.39,4.94,4.94,0,0,0,1.21,2.08,4.34,4.34,0,0,0,1.94,1.07A4.41,4.41,0,0,0,201.06,538.34ZM214.13,523l2.2-.67,3.72,12.16-2.2.68Zm.39-2.68a1.54,1.54,0,0,1-1.21-.08,1.41,1.41,0,0,1-.72-.88,1.46,1.46,0,0,1,.1-1.14,1.55,1.55,0,0,1,.95-.76,1.42,1.42,0,0,1,1.18.09,1.31,1.31,0,0,1,.74.85,1.54,1.54,0,0,1-.11,1.19A1.48,1.48,0,0,1,214.52,520.32Zm19.37-3.48a5.13,5.13,0,0,1,4.08.23,5.43,5.43,0,0,1,2.58,3.5l2.14,7-2.2.68-2.07-6.75a3.93,3.93,0,0,0-1.66-2.41,3.37,3.37,0,0,0-2.71-.15,4,4,0,0,0-2.5,1.92,4.25,4.25,0,0,0-.12,3.3l1.92,6.27-2.2.67-3.72-12.16,2.11-.65.56,1.84a4.38,4.38,0,0,1,1.35-2A6.41,6.41,0,0,1,233.89,516.84Zm40.43-12.24L278,516.76l-2.09.64-.56-1.83a4.71,4.71,0,0,1-1.32,2,5.81,5.81,0,0,1-2.21,1.22,5.53,5.53,0,0,1-4.24-.16A5.46,5.46,0,0,1,265,515.1l-2.14-7,2.2-.67,2.06,6.75a4,4,0,0,0,1.67,2.42,3.29,3.29,0,0,0,2.71.15,3.79,3.79,0,0,0,2.43-1.9,4.33,4.33,0,0,0,.1-3.29l-1.92-6.29Zm18.33,7.85a11,11,0,0,1-3,.48,6.49,6.49,0,0,1-2.47-.37l.38-2a7,7,0,0,0,2.23.32,8.56,8.56,0,0,0,2.43-.37c1.93-.59,2.72-1.43,2.38-2.53a1.14,1.14,0,0,0-.65-.76,2.55,2.55,0,0,0-1.13-.15,17.57,17.57,0,0,0-1.76.16,19.5,19.5,0,0,1-2.57.21,3.85,3.85,0,0,1-1.89-.53,3,3,0,0,1-1.28-1.79,3.27,3.27,0,0,1,.57-3.06,6.37,6.37,0,0,1,3.39-2.14,10.57,10.57,0,0,1,2.52-.45,6.78,6.78,0,0,1,2.25.2l-.41,2a6.63,6.63,0,0,0-3.81.11,4.13,4.13,0,0,0-2,1.11,1.42,1.42,0,0,0-.36,1.44,1.17,1.17,0,0,0,.7.81,2.7,2.7,0,0,0,1.16.2c.45,0,1.06-.07,1.83-.16a17.1,17.1,0,0,1,2.54-.17,3.61,3.61,0,0,1,1.85.49,2.79,2.79,0,0,1,1.23,1.73,3.18,3.18,0,0,1-.61,3.07A7,7,0,0,1,292.65,512.45Zm29.5-14.72A4.11,4.11,0,0,1,322,496a4.61,4.61,0,0,1,.4-1.43c.2-.41.48-.92.84-1.51a10,10,0,0,0,.93-1.79,2.45,2.45,0,0,0,0-1.56,2.21,2.21,0,0,0-1.42-1.52,3.93,3.93,0,0,0-2.62,0,5.12,5.12,0,0,0-3.55,3.06l-2-.68a6.6,6.6,0,0,1,1.87-2.65,9,9,0,0,1,3.29-1.73,6.78,6.78,0,0,1,4.3-.12,3.64,3.64,0,0,1,2.38,2.54,4.28,4.28,0,0,1,.2,1.77,4.55,4.55,0,0,1-.37,1.42c-.2.41-.47.91-.82,1.51a9.88,9.88,0,0,0-.95,1.92,2.87,2.87,0,0,0,.05,1.71Zm2.76,4.86a1.58,1.58,0,0,1-1.21-.09,1.5,1.5,0,0,1-.73-.93,1.42,1.42,0,0,1,.1-1.16,1.5,1.5,0,0,1,.94-.76,1.44,1.44,0,0,1,1.19.11,1.46,1.46,0,0,1,.73.91,1.54,1.54,0,0,1-.11,1.19A1.52,1.52,0,0,1,324.91,502.59Z"/></g></svg>