<svg width="376" height="812" viewBox="0 0 376 812" fill="none" xmlns="http://www.w3.org/2000/svg">
<g clip-path="url(#clip0)">
<rect width="375" height="812" transform="translate(0.5)" fill="white"/>
<path d="M-73.8189 591.435C-93.2927 605.382 -102.866 634.625 -101.733 664.761C-100.435 694.848 -88.4804 725.663 -66.9777 750.651C-45.475 775.64 -14.4239 794.801 13.3753 791.006C41.01 787.262 65.4945 760.893 91.6795 738.903C118.029 716.863 145.852 699.634 146.576 679.089C147.187 658.761 120.586 635.334 105.785 605.209C91.1482 575.033 88.6405 538.059 73.6764 532.662C58.763 527.43 31.3931 553.775 3.18561 566.223C-25.1863 578.721 -54.3451 577.488 -73.8189 591.435Z" fill="#4549C4"/>
<path d="M321.181 459.435C301.708 473.382 292.134 502.625 293.267 532.761C294.565 562.848 306.52 593.663 328.023 618.651C349.525 643.64 380.576 662.801 408.376 659.006C436.01 655.262 460.495 628.893 486.68 606.903C513.029 584.863 540.852 567.634 541.576 547.089C542.187 526.761 515.586 503.334 500.785 473.209C486.148 443.033 483.641 406.059 468.677 400.662C453.763 395.43 426.393 421.775 398.186 434.223C369.814 446.721 340.655 445.488 321.181 459.435Z" fill="#043565"/>
<path d="M0.5 632.431L375.5 520V812H0.5V632.431Z" fill="#02394A"/>
<path d="M70.3541 636.693L69.8953 654.4L67.4854 655.137L59.1792 643.648L58.718 657.818L56.2622 658.568L45.9798 644.144L48.3437 643.422L56.6742 655.155L57.203 640.713L59.3145 640.068L67.7578 651.842L68.1737 637.359L70.3541 636.693ZM84.3942 636.541C86.0773 636.026 87.4889 636.047 88.6289 636.601C89.7843 637.152 90.6122 638.245 91.1128 639.883L93.3582 647.227L91.2696 647.866L90.7784 646.259C90.5843 646.937 90.1897 647.535 89.5947 648.051C89.0104 648.548 88.2515 648.939 87.3182 649.224C85.9564 649.641 84.7618 649.646 83.7344 649.241C82.7223 648.831 82.0525 648.09 81.7251 647.019C81.3976 645.948 81.5258 644.972 82.1097 644.091C82.6889 643.194 83.8277 642.486 85.5261 641.967L89.0147 640.901L88.8814 640.464C88.5913 639.516 88.0937 638.873 87.3885 638.537C86.6833 638.2 85.7952 638.196 84.7241 638.523C84.005 638.743 83.3386 639.081 82.7249 639.536C82.1065 639.976 81.621 640.467 81.2683 641.01L79.845 639.638C80.318 638.942 80.9507 638.33 81.7434 637.803C82.5313 637.261 83.4149 636.84 84.3942 636.541ZM87.1661 647.414C88.0077 647.156 88.6784 646.751 89.1781 646.196C89.6732 645.627 89.9532 644.955 90.0181 644.183L89.4989 642.484L86.1021 643.523C84.2354 644.093 83.4938 645.006 83.8774 646.261C84.0645 646.873 84.449 647.282 85.0309 647.489C85.6129 647.696 86.3246 647.671 87.1661 647.414ZM107.062 629.611C108.608 629.138 109.97 629.215 111.148 629.842C112.338 630.449 113.197 631.617 113.725 633.346L115.866 640.346L113.662 641.02L111.599 634.272C111.239 633.094 110.685 632.293 109.936 631.869C109.187 631.445 108.285 631.395 107.23 631.718C106.036 632.083 105.203 632.722 104.729 633.637C104.251 634.536 104.211 635.635 104.609 636.936L106.524 643.202L104.321 643.875L100.602 631.711L102.714 631.066L103.275 632.902C103.527 632.139 103.976 631.474 104.623 630.908C105.285 630.338 106.098 629.905 107.062 629.611ZM129.57 622.729C131.115 622.257 132.477 622.334 133.656 622.961C134.845 623.568 135.704 624.735 136.233 626.464L138.373 633.465L136.17 634.138L134.107 627.391C133.747 626.212 133.192 625.412 132.444 624.988C131.695 624.564 130.793 624.514 129.737 624.837C128.544 625.201 127.71 625.841 127.237 626.755C126.759 627.654 126.719 628.754 127.116 630.055L129.032 636.321L126.829 636.994L123.11 624.83L125.221 624.184L125.782 626.021C126.034 625.258 126.484 624.593 127.131 624.027C127.793 623.457 128.606 623.024 129.57 622.729ZM150.012 616.48C151.695 615.965 153.106 615.985 154.246 616.54C155.402 617.09 156.23 618.184 156.73 619.821L158.976 627.166L156.887 627.804L156.396 626.198C156.202 626.876 155.807 627.474 155.212 627.99C154.628 628.487 153.869 628.878 152.936 629.163C151.574 629.579 150.379 629.585 149.352 629.18C148.34 628.77 147.67 628.029 147.343 626.958C147.015 625.887 147.143 624.911 147.727 624.03C148.306 623.133 149.445 622.425 151.144 621.906L154.632 620.839L154.499 620.403C154.209 619.455 153.711 618.812 153.006 618.475C152.301 618.139 151.413 618.134 150.342 618.462C149.622 618.682 148.956 619.019 148.342 619.475C147.724 619.915 147.238 620.406 146.886 620.949L145.462 619.577C145.935 618.88 146.568 618.269 147.361 617.742C148.149 617.2 149.032 616.779 150.012 616.48ZM152.784 627.352C153.625 627.095 154.296 626.689 154.796 626.135C155.291 625.565 155.571 624.894 155.636 624.121L155.116 622.423L151.72 623.461C149.853 624.032 149.111 624.945 149.495 626.199C149.682 626.812 150.066 627.221 150.648 627.428C151.23 627.635 151.942 627.61 152.784 627.352ZM182.83 624.892C182.295 625.056 181.779 625.147 181.282 625.165C180.786 625.182 180.347 625.116 179.966 624.965L180.159 623.049C180.735 623.291 181.39 623.3 182.124 623.075C182.706 622.897 183.093 622.578 183.287 622.117C183.501 621.667 183.5 621.09 183.285 620.386L179.383 607.625L181.587 606.952L185.474 619.667C185.858 620.921 185.823 622.011 185.369 622.936C184.916 623.861 184.07 624.513 182.83 624.892ZM179.769 604.948C179.341 605.078 178.939 605.051 178.564 604.864C178.205 604.673 177.964 604.378 177.842 603.981C177.721 603.583 177.756 603.204 177.947 602.844C178.149 602.465 178.464 602.21 178.892 602.079C179.321 601.948 179.715 601.978 180.074 602.169C180.444 602.34 180.69 602.625 180.812 603.023C180.938 603.436 180.901 603.832 180.699 604.212C180.508 604.571 180.198 604.817 179.769 604.948ZM201.647 614.27C200.439 614.64 199.27 614.704 198.143 614.463C197.015 614.223 196.033 613.72 195.197 612.955C194.371 612.17 193.776 611.181 193.411 609.987C193.046 608.794 192.989 607.648 193.239 606.551C193.5 605.434 194.033 604.468 194.838 603.653C195.638 602.823 196.642 602.223 197.851 601.854C199.06 601.484 200.22 601.422 201.333 601.668C202.456 601.893 203.43 602.398 204.256 603.183C205.092 603.948 205.692 604.927 206.057 606.121C206.422 607.314 206.474 608.47 206.213 609.587C205.963 610.684 205.438 611.647 204.638 612.478C203.853 613.303 202.856 613.901 201.647 614.27ZM201.058 612.342C201.838 612.104 202.481 611.715 202.985 611.176C203.5 610.617 203.835 609.962 203.991 609.212C204.142 608.447 204.088 607.643 203.831 606.802C203.574 605.96 203.171 605.272 202.623 604.737C202.069 604.186 201.425 603.831 200.691 603.671C199.971 603.506 199.221 603.543 198.441 603.782C197.66 604.02 197.01 604.411 196.49 604.955C195.986 605.494 195.651 606.149 195.485 606.919C195.329 607.669 195.38 608.465 195.637 609.307C195.895 610.148 196.3 610.844 196.853 611.394C197.417 611.925 198.061 612.28 198.785 612.46C199.52 612.62 200.278 612.581 201.058 612.342ZM214.13 597.002L216.334 596.328L220.053 608.493L217.849 609.166L214.13 597.002ZM214.516 594.324C214.088 594.455 213.686 594.427 213.311 594.241C212.952 594.05 212.711 593.755 212.589 593.357C212.468 592.96 212.503 592.581 212.694 592.221C212.896 591.842 213.211 591.586 213.639 591.455C214.068 591.324 214.462 591.354 214.821 591.546C215.192 591.717 215.437 592.001 215.559 592.399C215.685 592.812 215.648 593.209 215.446 593.588C215.255 593.948 214.945 594.193 214.516 594.324ZM233.886 590.837C235.432 590.364 236.794 590.441 237.972 591.068C239.162 591.675 240.021 592.843 240.549 594.572L242.689 601.572L240.486 602.246L238.423 595.498C238.063 594.32 237.509 593.519 236.76 593.095C236.011 592.671 235.109 592.621 234.054 592.944C232.86 593.309 232.027 593.948 231.553 594.863C231.075 595.762 231.035 596.862 231.433 598.162L233.348 604.428L231.145 605.101L227.426 592.937L229.538 592.292L230.099 594.128C230.351 593.365 230.8 592.7 231.447 592.135C232.109 591.564 232.922 591.131 233.886 590.837ZM274.321 578.6L278.04 590.764L275.951 591.403L275.39 589.567C275.138 590.33 274.698 590.999 274.071 591.576C273.455 592.132 272.719 592.542 271.862 592.804C270.24 593.299 268.827 593.246 267.622 592.644C266.413 592.027 265.541 590.846 265.008 589.102L262.868 582.102L265.071 581.428L267.134 588.176C267.494 589.354 268.051 590.162 268.804 590.601C269.553 591.025 270.455 591.075 271.511 590.753C272.674 590.397 273.484 589.764 273.942 588.855C274.4 587.945 274.433 586.848 274.04 585.562L272.117 579.274L274.321 578.6ZM292.65 586.448C291.656 586.752 290.66 586.914 289.662 586.935C288.66 586.94 287.835 586.816 287.189 586.562L287.574 584.537C288.226 584.756 288.97 584.863 289.805 584.858C290.64 584.854 291.448 584.732 292.228 584.494C294.156 583.904 294.952 583.059 294.615 581.957C294.503 581.59 294.284 581.339 293.958 581.204C293.633 581.07 293.257 581.017 292.831 581.047C292.416 581.057 291.83 581.111 291.073 581.208C290.047 581.354 289.19 581.424 288.502 581.417C287.829 581.405 287.198 581.23 286.61 580.891C286.021 580.553 285.595 579.955 285.334 579.098C284.997 577.996 285.187 576.976 285.904 576.038C286.616 575.084 287.745 574.37 289.29 573.898C290.101 573.65 290.942 573.502 291.814 573.453C292.686 573.404 293.433 573.468 294.056 573.645L293.649 575.677C292.458 575.339 291.189 575.375 289.842 575.787C288.909 576.072 288.244 576.443 287.848 576.899C287.452 577.354 287.331 577.835 287.486 578.34C287.607 578.737 287.841 579.009 288.187 579.154C288.532 579.3 288.92 579.365 289.351 579.35C289.797 579.331 290.408 579.278 291.184 579.191C292.215 579.06 293.059 579.003 293.717 579.02C294.385 579.016 295.004 579.178 295.572 579.506C296.141 579.834 296.552 580.412 296.804 581.238C297.141 582.339 296.936 583.364 296.188 584.312C295.451 585.24 294.272 585.952 292.65 586.448ZM322.146 571.733C321.958 571.121 321.894 570.555 321.953 570.036C322.022 569.496 322.153 569.021 322.345 568.611C322.553 568.196 322.834 567.692 323.188 567.098C323.636 566.375 323.947 565.778 324.121 565.307C324.29 564.82 324.29 564.302 324.122 563.751C323.893 563.001 323.42 562.493 322.703 562.227C321.981 561.946 321.107 561.962 320.082 562.275C318.292 562.823 317.107 563.846 316.528 565.345L314.488 564.663C314.878 563.641 315.502 562.755 316.361 562.008C317.235 561.255 318.331 560.678 319.646 560.275C321.314 559.766 322.75 559.728 323.954 560.163C325.153 560.583 325.947 561.428 326.335 562.698C326.527 563.325 326.59 563.916 326.526 564.471C326.472 565.007 326.349 565.479 326.156 565.889C325.964 566.3 325.691 566.801 325.337 567.395C324.882 568.153 324.568 568.793 324.393 569.315C324.233 569.832 324.249 570.404 324.441 571.032L322.146 571.733ZM324.909 576.585C324.48 576.716 324.079 576.689 323.704 576.502C323.34 576.296 323.094 575.986 322.968 575.573C322.842 575.16 322.874 574.773 323.065 574.414C323.267 574.034 323.582 573.779 324.011 573.648C324.439 573.517 324.836 573.555 325.2 573.761C325.559 573.952 325.802 574.254 325.929 574.668C326.055 575.081 326.017 575.477 325.815 575.857C325.624 576.216 325.322 576.459 324.909 576.585Z" fill="white"/>
</g>
<defs>
<clipPath id="clip0">
<rect width="375" height="812" fill="white" transform="translate(0.5)"/>
</clipPath>
</defs>
</svg>
